<?xml version="1.0" encoding="utf-8"?>
<!-- Uploaded to: SVG Repo, www.svgrepo.com, Generator: SVG Repo Mixer Tools -->
<svg width="800px" height="800px" viewBox="0 -2.12 351.842 351.842" xmlns="http://www.w3.org/2000/svg"><defs><style>.a{fill:#febe69;}.b{fill:#ffffff;}.c{fill:#211715;}.d{fill:#f2635f;}.e{fill:#74c66d;}</style></defs><path class="a" d="M225.347,176.586a74.882,74.882,0,0,1,10.574-5.8c.257,3.917,2.191,7.682,4.286,11.082a6.369,6.369,0,0,0,1.1,1.336c-1.12-.178-1.921-.3-1.921-.3a99.646,99.646,0,0,0-19.038-.91.837.837,0,0,1-.557-1.5c1.364-1.048,2.937-2.177,4.637-3.309Q224.882,176.889,225.347,176.586Z"/><path class="b" d="M337.071,210.491a8.777,8.777,0,0,0,.074-1.317,3.152,3.152,0,0,0-1.368-2.888.347.347,0,0,0-.266-.044s-.184-.078-.467-.191a6.264,6.264,0,0,0,1.639-2.356,22.876,22.876,0,0,0,1.418-3.8,8.827,8.827,0,0,0,.362-4.672,3.2,3.2,0,0,0-1.1-1.786,5.327,5.327,0,0,0-3.751-.262s-.561.129-1.4.324c3.692-3.592,5.268-8.147,4.334-9.439a3.543,3.543,0,0,0-3.834-1.389c-10.332,1.634-23.368,8.144-31.122,15.165-3.657,3.311-6.87,7.129-10.84,10.056a21.266,21.266,0,0,1-8.6,3.935l-.066.012a13.313,13.313,0,0,1-5.144-.052l-3.99-.855a36.264,36.264,0,0,1-1.8-21.483c.766-3.57,2.263-7.622,3.328-11.123,2.636-8.667.126-19.353-7.637-24.024s-19.884-2.431-24.85,2.63a17.626,17.626,0,0,0-5.929,10.873c-.849,4.982,1.523,9.813,4.146,14.07a6.725,6.725,0,0,0,2.043,2.078,15.926,15.926,0,0,1,4.387,3.439c6.243,7.451,4.1,19.327,2.95,24.065-.423,1.734-.926,3.127-1.8,6.271l-.069.249-1.7,8.622c-1.457,7.406-1.525,16.22.4,23.3,2.544,9.38,9.165,20.625,18.829,22.107,15.783,9.19,37.895,8.422,53.075-3.42l16.859-28.633c-.829-4.876-1.962-7.836-6.019-11.34,3.923-2.439,5.955-6.32,6.831-11.611a15.624,15.624,0,0,0-.672-2.166A9.517,9.517,0,0,0,337.071,210.491Z"/><path class="c" d="M347.754,232.82a13.819,13.819,0,0,1-7.136,2.685,9.24,9.24,0,0,1-5.075-1.392l-2.02.731c-5.333,1.555-5.636,3.616-7.445,6.555-1.777,2.889-1.833,6.065-3.352,8.141a8.9,8.9,0,0,1-2.248,2.2c-4.288,2.83-9.65,12.663-3.816,15.747,12.5.166,15.99-4.466,20.384-8.593,3.726-3.5,6.277-8.468,8.089-12.495a66.407,66.407,0,0,0,4.744-15.046C349.186,231.845,348.478,232.346,347.754,232.82Z"/><path class="c" d="M270.345,195.7a37.9,37.9,0,0,1,.383-3.935,17.728,17.728,0,0,0-.108-2.617c-.521-1.707-2.7-2.882-4.932-3.761-3.933-1.548-7.614-3.93-8.577-8.306a18.268,18.268,0,0,1,.121-7.11,20.487,20.487,0,0,1,1.614-5.377,6.156,6.156,0,0,0,.866-3.32q0-4.671,0-9.343c-6.742-.865-14.118,1.323-17.723,5a17.629,17.629,0,0,0-5.929,10.873c-.849,4.982,1.523,9.813,4.146,14.07a6.723,6.723,0,0,0,2.056,2.087,15.9,15.9,0,0,1,4.374,3.43c4.353,5.195,4.631,12.54,4,18.117a23.972,23.972,0,0,0,9.908,5.4,63.212,63.212,0,0,0,13.346,1.979A33.841,33.841,0,0,1,270.345,195.7Z"/><path class="d" d="M268.469,156.18c.077-.187.151-.38.219-.579a15.79,15.79,0,0,0-1.848-1.3c-5.185-3.12-12.313-3.157-17.956-1.329a10.436,10.436,0,0,0,6.953,8.854,11.335,11.335,0,0,0,4.772.254A9.938,9.938,0,0,0,268.469,156.18Z"/><path class="c" d="M276.406,213.713c5.825,1.147,11.464-1.1,16.049-4.622,4.4-3.382,7.911-7.735,12.19-11.255a64.971,64.971,0,0,1,13.485-8.328,57.86,57.86,0,0,1,14.416-4.794,3.431,3.431,0,0,1,1.677-.058c.3.109.478.417.668.52-.15-.082-.118-.16-.086-.274a3.8,3.8,0,0,0-.011.576c.013-.121-.153.637-.223.863a14.818,14.818,0,0,1-4.437,6.358c-1.916,1.726.92,4.547,2.829,2.828a19.485,19.485,0,0,0,4.869-6.576c.729-1.673,1.5-3.917.571-5.671-1.327-2.5-4.044-2.894-6.569-2.483a48.7,48.7,0,0,0-7.876,2.047,74.737,74.737,0,0,0-15.767,7.564,80.191,80.191,0,0,0-13.315,11.183c-4.53,4.467-10.518,9.621-17.407,8.265-2.514-.5-3.591,3.359-1.063,3.857Z"/><path class="c" d="M334.062,216.466c-.152.9-.337,1.8-.578,2.681q-.183.668-.407,1.321-.1.279-.2.554c-.034.09-.265.653-.077.213a15.355,15.355,0,0,1-1.108,2.129c-.207.33-.429.65-.663.963q-.13.173.076-.1c-.065.081-.13.16-.2.239-.133.159-.27.313-.41.465q-.369.4-.771.766c-.154.141-.312.279-.473.412-.081.067-.163.133-.245.2q.294-.227.025-.024a17.019,17.019,0,0,1-2.109,1.28,11.578,11.578,0,0,1-2.181.864,25.443,25.443,0,0,1-2.9.716,2.018,2.018,0,0,0-1.4,2.46,2.042,2.042,0,0,0,2.46,1.4,18.733,18.733,0,0,0,10.422-5.242,19.63,19.63,0,0,0,4.592-10.231,2.06,2.06,0,0,0-1.4-2.46,2.017,2.017,0,0,0-2.461,1.4Z"/><path class="c" d="M333.843,218.893a11.552,11.552,0,0,0,4.97-6.881,9.776,9.776,0,0,0,.143-4.409c-.347-1.568-1.655-3.428-3.445-3.361a2,2,0,0,0,0,4l-.616-.16q.226.15.027.01c-.167-.214.161.093-.061-.062-.08-.113-.089-.124-.028-.034a1.9,1.9,0,0,1,.113.182c.187.271-.066-.049-.017-.083-.009.007.172.582.185.645s.038.386.023.106c-.018-.315,0,.116,0,.181.01.243.007.487,0,.729-.006.111-.013.222-.023.332-.018.215-.042.324,0,.046a10.073,10.073,0,0,1-.344,1.454c-.068.212-.148.418-.226.626.148-.394.007-.028-.033.055-.047.1-.1.2-.147.3a12.877,12.877,0,0,1-.789,1.271c-.131.193.2-.228-.046.054-.073.083-.144.169-.218.251q-.249.279-.521.537c-.181.171-.371.331-.562.492.137-.116.171-.125.007-.012-.138.094-.275.188-.415.278a2,2,0,0,0,2.019,3.454Z"/><path class="c" d="M335.9,207.866c1.527-.848,2.312-2.65,2.968-4.183a21.817,21.817,0,0,0,1.667-5.621c.273-2.037.007-4.455-1.606-5.921-1.555-1.413-3.929-1.3-5.848-.9a2,2,0,1,0,1.064,3.857,3.9,3.9,0,0,1,.9-.12c.146,0,.293-.007.439,0-.018,0,.571.039.334.012s.217.045.265.057l.155.042c.181.063.192.063.031,0-.255-.3.251.344-.168-.118.086.095.19.173.269.276-.194-.253.029.11.056.162.088.166-.019-.166.055.156.042.179.1.352.131.534.066.369,0-.377.027.284a6.327,6.327,0,0,1-.192,1.939c-.164.713-.376,1.415-.6,2.11-.094.289-.192.577-.3.863-.057.156-.119.312-.179.468a1.145,1.145,0,0,1-.08.2,17.8,17.8,0,0,1-.789,1.62c-.076.135-.155.269-.239.4-.038.06-.286.4-.06.119-.073.09-.155.171-.231.258-.305.35.272-.143-.088.057a2,2,0,0,0,2.019,3.454Z"/><path class="c" d="M317.671,265.756c-2.261-1.268-1.694-4.013-.783-6.2a16.944,16.944,0,0,1,5.483-6.75c3.473-2.8,3.586-7.234,5.716-10.864a17.459,17.459,0,0,1,1.886-3.01,8.922,8.922,0,0,1,4.082-2.158c2.458-.741,1.41-4.6-1.064-3.857-2.939.888-5.454,2.241-7.132,4.88a37.345,37.345,0,0,0-2.049,3.589c-.868,1.78-1.283,3.687-1.968,5.531a7.43,7.43,0,0,1-2.844,3.43,15.161,15.161,0,0,0-2.847,2.789,17.955,17.955,0,0,0-3.858,7.921c-.552,3.256.336,6.459,3.359,8.155,2.248,1.26,4.267-2.194,2.019-3.454Z"/><path class="b" d="M247.6,167.155a3.334,3.334,0,0,0-3.4,3.379,3.279,3.279,0,0,0,3.4,3.442,3.244,3.244,0,0,0,3.4-3.442A3.331,3.331,0,0,0,247.6,167.155Z"/><path class="c" d="M247.7,156.416c1.928,4.578,5.886,7.791,10.993,7.8a12.6,12.6,0,0,0,10.82-5.677c1.386-2.179-2.074-4.187-3.454-2.019a8.34,8.34,0,0,1-7.046,3.691,7.773,7.773,0,0,1-7.456-4.857,2.067,2.067,0,0,0-2.46-1.4,2.012,2.012,0,0,0-1.4,2.46Z"/><path class="c" d="M243.092,226.065c-2.576,13.373-.977,28.02,7.517,39.082a25.3,25.3,0,0,0,7.789,6.943c2.259,1.237,4.28-2.216,2.019-3.454-6.3-3.451-10.221-10.442-12.407-17.062-2.577-7.8-2.606-16.426-1.061-24.446.485-2.515-3.37-3.593-3.857-1.063Z"/><path class="c" d="M264.351,273.8a51.143,51.143,0,0,0,43.9,2.82A48.581,48.581,0,0,0,319.734,270a2.009,2.009,0,0,0,0-2.828,2.052,2.052,0,0,0-2.828,0c-11.081,8.565-26.294,11.067-39.732,7.566a44.022,44.022,0,0,1-10.8-4.39c-2.238-1.281-4.255,2.174-2.019,3.453Z"/><path class="c" d="M283.476,220.356c6.169,4.683,14.659,4.929,22.073,4.5,3.908-.226,7.738-.53,11.616.244a22.87,22.87,0,0,1,11.16,5.435,14.382,14.382,0,0,1,3.457,4.5,21.575,21.575,0,0,1,1.468,5.441,2.017,2.017,0,0,0,2.461,1.4,2.045,2.045,0,0,0,1.4-2.46,19.958,19.958,0,0,0-4.213-9.92,25.068,25.068,0,0,0-10.779-7.194,33.615,33.615,0,0,0-13.308-1.675,83.025,83.025,0,0,1-11.073.255c-4.349-.294-8.713-1.3-12.239-3.981a2.011,2.011,0,0,0-2.736.717,2.05,2.05,0,0,0,.717,2.737Z"/><path class="c" d="M268.1,248.072a20.089,20.089,0,0,0,4.693,8.857,17.874,17.874,0,0,0,9.407,4.985c8.087,1.644,16.005-1.184,23.024-5.041,2.256-1.24.24-4.695-2.019-3.454-5.88,3.231-12.684,5.948-19.518,4.719a14.506,14.506,0,0,1-7.821-3.786,15.819,15.819,0,0,1-3.909-7.343c-.649-2.489-4.508-1.434-3.857,1.063Z"/><path class="c" d="M239.659,185.034c7.153,2.436,9.368,10.02,9.228,16.888-.119,5.882-1.953,11.239-3.462,16.858-.668,2.489,3.19,3.551,3.857,1.064,1.3-4.834,2.839-9.475,3.38-14.477.639-5.915.123-12.468-3.235-17.56a16.84,16.84,0,0,0-8.7-6.63c-2.442-.832-3.49,3.03-1.063,3.857Z"/><path class="c" d="M278.943,216.082a16.278,16.278,0,0,1-4.671-7.207,33.6,33.6,0,0,1-1.962-11.907,45.176,45.176,0,0,1,2.6-13.452c1.236-3.829,2.491-7.536,2.573-11.6.144-7.147-2.7-14.475-8.646-18.694s-14.5-4.342-21.195-1.936a20.577,20.577,0,0,0-13.73,18.436c-.1,2.574,3.9,2.57,4,0a16.411,16.411,0,0,1,10.482-14.464c5.887-2.219,13.484-2.365,18.689,1.606,5.135,3.917,6.94,10.932,6.271,17.111-.413,3.815-2.031,7.453-3.123,11.1a42.738,42.738,0,0,0-1.921,12.77,36.318,36.318,0,0,0,2.355,12.752c1.2,3.06,2.848,6.207,5.45,8.311a2.059,2.059,0,0,0,2.828,0,2.014,2.014,0,0,0,0-2.828Z"/><path class="c" d="M239.917,180.979a98.992,98.992,0,0,0-9.962-.979q-2.562-.125-5.129-.122-1.146,0-2.293.031c-.317.009-.635.019-.952.031a3.883,3.883,0,0,0-1.234.058q1.787.585.675,2.057l.341-.258q.409-.309.824-.612.873-.639,1.762-1.256,2.05-1.425,4.179-2.737a71.323,71.323,0,0,1,8.793-4.671,2.012,2.012,0,0,0,.717-2.736,2.05,2.05,0,0,0-2.736-.718,78.362,78.362,0,0,0-14.974,8.841c-1.157.854-2.472,1.657-2.465,3.274A2.888,2.888,0,0,0,220.347,184c1.43.034,2.88-.115,4.313-.12q2.215-.006,4.43.084a89.9,89.9,0,0,1,9.763.874,2.067,2.067,0,0,0,2.461-1.4,2.016,2.016,0,0,0-1.4-2.46Z"/><path class="c" d="M327.106,229.48c3.2,2.872,6.234,6.607,10.591,7.691,4.947,1.23,9.309-1.324,13.191-4.095l-2.938-2.259a61.189,61.189,0,0,1-8.855,22.55,39.4,39.4,0,0,1-5.987,6.526,19.843,19.843,0,0,1-5.393,3.77c-3.432,1.572-7.332,1.852-11.053,1.82-2.575-.022-2.577,3.978,0,4,6.763.058,13.07-1.344,18.259-5.845a45.875,45.875,0,0,0,6.12-6.2,48.73,48.73,0,0,0,6.006-10.453,70.525,70.525,0,0,0,4.76-15.109c.3-1.536-1.393-3.361-2.938-2.258-3.009,2.148-6.549,4.736-10.45,3.6-3.421-1-5.933-4.279-8.485-6.569-1.911-1.715-4.749,1.105-2.828,2.828Z"/><path class="c" d="M233.887,170.045a17.8,17.8,0,0,0,7.4,14.137,2.009,2.009,0,0,0,2.737-.718,2.054,2.054,0,0,0-.718-2.736c-.094-.067-.586-.449-.314-.227-.21-.172-.419-.345-.621-.526a14.425,14.425,0,0,1-1.1-1.1c-.166-.183-.325-.372-.482-.563-.088-.1-.157-.2-.033-.037q-.141-.187-.276-.381a14.246,14.246,0,0,1-2.6-7.852,2,2,0,0,0-4,0Z"/><path class="c" d="M273.448,344.618c1.722-1.06,3.431-2.147,5.2-3.127q1.164-.645,2.366-1.217.653-.309,1.312-.6c.267-.118.535-.233.8-.349-.193.084-.107.045.036-.014l.538-.223a2.053,2.053,0,0,0,1.4-2.46,2.019,2.019,0,0,0-2.46-1.4,57.5,57.5,0,0,0-5.888,2.739c-1.813,1-3.561,2.11-5.322,3.194a2,2,0,1,0,2.018,3.454Z"/><path class="c" d="M282.539,338.986c1.666,1.07,3.3,2.188,4.886,3.372a2.014,2.014,0,0,0,1.541.2,2.046,2.046,0,0,0,1.2-.919,2.02,2.02,0,0,0,.2-1.542l-.2-.477a2.008,2.008,0,0,0-.718-.718c-1.586-1.184-3.22-2.3-4.886-3.372a2.016,2.016,0,0,0-2.736.718,2.044,2.044,0,0,0,.717,2.736Z"/><path class="c" d="M280.808,337.028a31.062,31.062,0,0,0-2.549,8.056,2,2,0,1,0,3.857,1.064,41,41,0,0,1,.966-4.1c.173-.573.368-1.141.586-1.7a1.823,1.823,0,0,1,.161-.4c-.03.041-.187.433-.076.181l.087-.2c.134-.3.276-.6.422-.891a2,2,0,0,0-3.454-2.019Z"/><path class="c" d="M274.2,277.048c2.344,6.832,4.569,13.708,6.6,20.64.722,2.465,4.584,1.416,3.857-1.064-2.031-6.932-4.256-13.807-6.6-20.64-.83-2.42-4.7-1.38-3.857,1.064Z"/><path class="c" d="M281.93,303.523c-.12,10.72-.515,21.442-.948,32.153-.1,2.574,3.9,2.569,4,0,.433-10.711.828-21.433.948-32.153.029-2.575-3.971-2.576-4,0Z"/><path class="c" d="M287.375,279.876q4.242,7.65,8.046,15.538a2.02,2.02,0,0,0,2.737.718,2.043,2.043,0,0,0,.717-2.737q-3.813-7.87-8.046-15.538c-1.248-2.251-4.7-.236-3.454,2.019Z"/><path class="c" d="M295.579,293.2c-4.443,11.435-8.946,22.847-13.19,34.358-.892,2.419,2.973,3.462,3.857,1.064,4.244-11.512,8.747-22.924,13.19-34.359a2.015,2.015,0,0,0-1.4-2.46,2.045,2.045,0,0,0-2.46,1.4Z"/><path class="b" d="M5.371,306.6a19.428,19.428,0,0,1-.992-4.968c3.736,4.165,7.37,6.155,11.142,6.428,4.969.361,6.777-1.538,10.6-2.646a18.588,18.588,0,0,1,3.291-.632c1.64-.17,4.416-.25,5.666.723,0,0,.241.187.647.507a26.841,26.841,0,0,0,2.738,3.48,31.552,31.552,0,0,0,4.112,1.834,25.023,25.023,0,0,1-2.435,6.584c-3.154,6.26-11.8,6.165-15.45,5.567a20.979,20.979,0,0,1-15.276-10.9A13.221,13.221,0,0,1,5.371,306.6Z"/><path class="b" d="M24.022,274.212a53.8,53.8,0,0,0-6.19,4.378,10.012,10.012,0,0,0-3.094,3.744,4.14,4.14,0,0,0,.752,4.546,5.44,5.44,0,0,0,2.772,1.125c3.917.689,7.89.2,11.829.047A58.77,58.77,0,0,1,31.9,269.7C29.276,271.164,26.6,272.618,24.022,274.212Z"/><path class="b" d="M131.876,298.331c-1.361-5.79-3.94-12.47-8.178-15.055q1.77-2.254,3.324-4.687a31.361,31.361,0,0,0,4.232-13c6.023-.346,11.293,3.867,14.3,8.306a17.872,17.872,0,0,1,2.134,17.252c-1.519,4.073-5.162,11.436-10.245,13.6a3.831,3.831,0,0,1-3.347-.278,4.473,4.473,0,0,1-1.5-2.555C132.408,300.793,132.17,299.583,131.876,298.331Z"/><path class="b" d="M51.929,333.738c.421,1.853,1.287,3.3,2.608,3.785,4.722,1.361,9-2.213,10.694-4.306a57.7,57.7,0,0,0,7.125-10.6,10.786,10.786,0,0,0,1.375-5.25l-.595-5.161a75.055,75.055,0,0,1-17.542,1.525,54.156,54.156,0,0,0-3.831,15.094A14.367,14.367,0,0,0,51.929,333.738Z"/><path class="b" d="M151.656,216.568a12.869,12.869,0,0,0,.734-2.3,10.778,10.778,0,0,0-2.226-9.879c-2.449-3.021-5.307-4.359-9.011-5.546A24.578,24.578,0,0,0,131,197.756a18.077,18.077,0,0,0-12.765,8.078c-2.136,3.173-3.969,7.59-5.3,10.256l-2.9,5.795a17.448,17.448,0,0,1,3.984,1.985c2.354,1.733,5.434,3.9,6.814,5.552a38.412,38.412,0,0,1,5.913,8.927c3.924-4.487,6.854-7.559,9.936-9.536,1.239-.8,3.709-1.973,5.025-2.635C145.91,224.067,149.854,220.818,151.656,216.568Z"/><path class="c" d="M114.663,217.1c2.455-4.954,4.408-10.72,8.958-14.2,4.678-3.581,10.666-3.921,16.177-2.372,5.194,1.461,11.085,4.866,10.939,11.022-.141,5.9-4.8,10.186-9.7,12.734a45.128,45.128,0,0,0-7.575,4.415,61.067,61.067,0,0,0-7.607,7.648c-1.7,1.924,1.121,4.764,2.828,2.828a61.277,61.277,0,0,1,7.349-7.441c2.172-1.744,4.747-2.795,7.191-4.084,6.007-3.168,10.992-8.5,11.485-15.536.494-7.053-5.053-12.258-11.181-14.56-6.443-2.421-13.555-2.792-19.755.517-6.705,3.579-9.373,10.576-12.563,17.014-1.14,2.3,2.309,4.328,3.454,2.019Z"/><path class="c" d="M137.953,204.981a3.334,3.334,0,0,0-3.4,3.379,3.278,3.278,0,0,0,3.4,3.442,3.244,3.244,0,0,0,3.4-3.442A3.331,3.331,0,0,0,137.953,204.981Z"/><path class="c" d="M147.189,217.061a22.132,22.132,0,0,1,3.492-1.859l-.477.2q.583-.244,1.179-.455a2.133,2.133,0,0,0,1.195-.919,2,2,0,0,0-.717-2.737,1.984,1.984,0,0,0-1.541-.2,24.159,24.159,0,0,0-5.15,2.515,2.12,2.12,0,0,0-.919,1.195,2.045,2.045,0,0,0,.2,1.542,2,2,0,0,0,2.736.717Z"/><path class="e" d="M130.75,247.985c4.316,9.382,1.281,22.745-3.728,30.6a64.976,64.976,0,0,1-19.632,19.4,100.6,100.6,0,0,1-27.087,12.5c-10.253,2.884-28.57,6.115-41.842-1-7.891-8.462-10.746-23.028-6.595-39.687,3.455-13.868,8.953-23.088,16.833-31.813,12.966-14.355,31.477-21.55,54.031-17.961,4.835.689,9.378,2.432,11.293,3.842a37.9,37.9,0,0,1,6.1,5.514c3.677,4.4,6.064,7.3,7.668,11.419Z"/><path class="c" d="M53.455,313.725a53.418,53.418,0,0,0-2.8,9.46c-.834,4.273-1.889,9.2.139,13.3,2.045,4.134,7.176,3.853,10.8,2.128,3.585-1.706,5.956-4.944,8.229-8.07a55.472,55.472,0,0,0,3.873-6.179c1.129-2.079,2.24-4.563,2.04-6.992-.209-2.547-4.211-2.57-4,0a8.685,8.685,0,0,1-1.3,4.611,55.87,55.87,0,0,1-2.856,4.806c-1.7,2.54-3.573,5.416-6.08,7.233-1.811,1.312-6.007,3.238-7.252.444-1.416-3.178-.319-7.32.332-10.558a53.2,53.2,0,0,1,2.736-9.117,2.015,2.015,0,0,0-1.4-2.46,2.046,2.046,0,0,0-2.46,1.4Z"/><path class="c" d="M30.12,286.051c-3.477.139-7,.556-10.47.151-.965-.112-2.53-.236-3.035-1.08a2.678,2.678,0,0,1,.3-2.674,12.1,12.1,0,0,1,2.949-2.95c1.2-.96,2.473-1.834,3.762-2.671,2.737-1.777,5.6-3.351,8.446-4.938,2.249-1.254.235-4.71-2.019-3.454-5.074,2.827-10.509,5.632-14.723,9.7-2.037,1.968-3.43,4.632-2.762,7.517.747,3.23,3.833,4.15,6.733,4.5,3.6.44,7.216.034,10.817-.11,2.566-.1,2.579-4.1,0-4Z"/><path class="c" d="M129.716,240.272c-3.686-9.369-10.89-17.725-20.7-20.852a58.147,58.147,0,0,0-16.892-2.3,63.012,63.012,0,0,0-15.169,1.669c-18.824,4.482-34.2,18.917-42.129,36.318-4.574,10.036-7.436,21.412-6.771,32.491a43.094,43.094,0,0,0,3.287,14.472,30.707,30.707,0,0,0,3.194,5.739,31.518,31.518,0,0,0,2.087,2.633,8.668,8.668,0,0,0,3.239,1.936c9.543,4.112,20.321,3.975,30.413,2.369a96.122,96.122,0,0,0,29.936-10.206c10.045-5.337,19.2-12.186,26.051-21.349a33.933,33.933,0,0,0,6.31-13.377,43.966,43.966,0,0,0,.5-15.467,35.184,35.184,0,0,0-1.805-7.233c-.886-2.394-4.753-1.358-3.857,1.063,3.1,8.38,3.1,18.939-.821,27.073a46.238,46.238,0,0,1-9.009,11.94,69.067,69.067,0,0,1-12.142,9.681,96.824,96.824,0,0,1-29.179,12.61c-8.769,2.106-18.2,3.226-27.139,1.543a37.45,37.45,0,0,1-6.828-1.939,9.673,9.673,0,0,1-2.731-1.356,11.759,11.759,0,0,1-1.751-2.2,32.189,32.189,0,0,1-4.915-11.709c-2.183-10.136-.354-20.75,2.931-30.437,5.656-16.674,18.313-32.038,34.985-38.5a59.773,59.773,0,0,1,27.766-3.4c4.748.487,10.2,1.222,14.245,3.976a45.035,45.035,0,0,1,5.741,4.474,30.246,30.246,0,0,1,4.421,5.682,33.435,33.435,0,0,1,2.877,5.72,2.061,2.061,0,0,0,2.461,1.4,2.014,2.014,0,0,0,1.4-2.46Z"/><path class="c" d="M77.505,232.612a62.392,62.392,0,0,1,5.386,3.693c.253.192-.215-.171.033.026l.288.226c.215.169.429.34.641.511q.594.48,1.178.971,1.162.978,2.286,2a2,2,0,0,0,2.829-2.829,70.2,70.2,0,0,0-10.622-8.051,2,2,0,0,0-2.019,3.454Z"/><path class="c" d="M89.385,246.3q.05.353,0,.015c.016.125.032.25.047.375q.047.386.087.772.086.809.149,1.619.126,1.593.179,3.191a52.736,52.736,0,0,1-.121,6.311,2.008,2.008,0,0,0,2,2,2.051,2.051,0,0,0,2-2,60.086,60.086,0,0,0-.486-13.346,2,2,0,0,0-2.46-1.4,2.065,2.065,0,0,0-1.4,2.46Z"/><path class="c" d="M54.248,253.2c.4.255.779.528,1.156.811.139.105.295.359-.017-.015a2.228,2.228,0,0,0,.3.235q.31.248.616.5c.945.782,1.862,1.6,2.763,2.432,1.658,1.535,3.278,3.125,4.786,4.809a2.014,2.014,0,0,0,2.829,0,2.047,2.047,0,0,0,0-2.828c-1.542-1.722-3.2-3.345-4.9-4.911a41.7,41.7,0,0,0-5.517-4.487,2.017,2.017,0,0,0-2.737.717,2.045,2.045,0,0,0,.718,2.737Z"/><path class="c" d="M72.945,266.36a142.585,142.585,0,0,0,14.605.085,2.043,2.043,0,0,0,2-2,2.02,2.02,0,0,0-2-2,142.585,142.585,0,0,1-14.605-.085,2,2,0,0,0,0,4Z"/><path class="c" d="M67.84,269.439a84.385,84.385,0,0,1,2.083,9.292,2.01,2.01,0,0,0,2.46,1.4,2.056,2.056,0,0,0,1.4-2.461,84.488,84.488,0,0,0-2.083-9.292,2,2,0,1,0-3.857,1.064Z"/><path class="c" d="M37.658,275.6a53.929,53.929,0,0,0,10.731,9.9,2.008,2.008,0,0,0,2.736-.718,2.053,2.053,0,0,0-.717-2.736q-.7-.493-1.378-1.007-.18-.135-.358-.272c.225.173.017.014-.094-.074-.212-.167-.424-.335-.634-.5q-1.371-1.108-2.667-2.306a49.115,49.115,0,0,1-4.791-5.107,2.007,2.007,0,0,0-2.828,0,2.057,2.057,0,0,0,0,2.829Z"/><path class="c" d="M55.926,287.6a88.154,88.154,0,0,0,13.079-.957,2.054,2.054,0,0,0,2-2c-.044-.972-.888-2.139-2-2a88.154,88.154,0,0,1-13.079.957,2,2,0,1,0,0,4Z"/><path class="c" d="M45.824,290.057a22.737,22.737,0,0,0-.354,3.6,26.264,26.264,0,0,0,.025,3.355,2.15,2.15,0,0,0,.586,1.414,2,2,0,0,0,3.414-1.414,24.435,24.435,0,0,1-.042-2.864c.029-1,.08-2.011.209-3.007l-.071.531c.025-.184.053-.369.09-.551a2.133,2.133,0,0,0-.2-1.542,2,2,0,0,0-3.655.478Z"/><path class="c" d="M79.791,290.624a13.752,13.752,0,0,0-2.783-4.773,2,2,0,0,0-2.828,0,2.012,2.012,0,0,0-.586,1.414,2.115,2.115,0,0,0,.586,1.414c.183.192.354.394.517.6l-.313-.4a12.334,12.334,0,0,1,1.514,2.689l-.2-.478q.124.3.237.6a2.156,2.156,0,0,0,.919,1.195,2,2,0,0,0,2.737-.717,1.964,1.964,0,0,0,.2-1.541Z"/><path class="c" d="M107.89,265.426a69.335,69.335,0,0,0-10.082-3.652,2,2,0,1,0-1.063,3.857c1.669.484,3.329,1,4.968,1.582q1.158.408,2.3.861c.184.073.367.149.55.223.212.088.206.085-.016-.009l.227.1q.552.238,1.1.493a2.046,2.046,0,0,0,2.736-.717,2.024,2.024,0,0,0-.717-2.736Z"/><path class="c" d="M111.05,236.809a39.88,39.88,0,0,1,7.667,19.61,28.282,28.282,0,0,1-1.081,11.029,33.056,33.056,0,0,1-5.461,9.878c-4.8,6.29-11.249,10.851-18.156,14.571a86.067,86.067,0,0,1-22.251,8.192,101.832,101.832,0,0,1-27,2.088c-2.573-.126-2.566,3.874,0,4,16.988.836,34.135-2.116,49.374-9.838,14.28-7.234,28.789-19.816,28.7-37.159a42.705,42.705,0,0,0-8.343-24.39,2.058,2.058,0,0,0-2.736-.717,2.015,2.015,0,0,0-.718,2.736Z"/><path class="c" d="M137.639,269.139a19.246,19.246,0,0,1,8.72,10.932c1.244,4.195.419,8.413-1.335,12.333-1.53,3.421-3.534,7.138-6.58,9.45-1.038.788-2.887,1.964-3.673.3a11.057,11.057,0,0,1-.577-2.566q-.315-1.577-.723-3.132c-1.219-4.637-3.03-9.446-6.373-12.986-1.771-1.876-4.595.957-2.828,2.828,3.221,3.412,4.7,8.342,5.735,12.811.532,2.3.621,4.844,2.442,6.588,1.962,1.88,4.967,1.477,7.108.208,3.94-2.334,6.618-6.606,8.537-10.647,2.2-4.643,3.532-9.566,2.5-14.712a23.014,23.014,0,0,0-10.939-14.864c-2.236-1.286-4.252,2.169-2.019,3.454Z"/><path class="c" d="M106.557,238.591l-6.908.751a2.174,2.174,0,0,0-1.414.586,2,2,0,0,0,1.414,3.414l6.908-.751a2.169,2.169,0,0,0,1.414-.586,2,2,0,0,0-1.414-3.414Z"/><path class="c" d="M.294,299.737c4.125,5.489,9.517,10.575,16.837,10.359,2.978-.088,5.4-1.28,8.126-2.293A17.31,17.31,0,0,1,30,306.727c1.288-.095,2.952-.267,4.072.5,2.127,1.46,4.13-2,2.019-3.454-2.584-1.775-6.763-1.195-9.619-.523-2.6.612-4.913,2.054-7.518,2.631-6.455,1.429-11.633-3.416-15.2-8.165A2.064,2.064,0,0,0,1.011,297a2.015,2.015,0,0,0-.717,2.737Z"/><path class="c" d="M29.35,311.184c-4.638,1.331-9.685,3.121-14.544,1.885a10.78,10.78,0,0,1-7.523-7.043c-.863-2.406-4.73-1.368-3.857,1.063a14.994,14.994,0,0,0,9.7,9.664c5.759,1.76,11.734-.118,17.29-1.712,2.47-.708,1.419-4.569-1.064-3.857Z"/><path class="c" d="M38.461,316.8c-2.158,4.226-7.183,5.129-11.527,4.909a12.291,12.291,0,0,1-2.373-.28,20.342,20.342,0,0,1-4.209-1.29,19.681,19.681,0,0,1-7.5-5.827,2.013,2.013,0,0,0-2.829,0,2.049,2.049,0,0,0,0,2.828,23.314,23.314,0,0,0,17.147,8.579c5.653.231,11.991-1.507,14.744-6.9,1.168-2.289-2.281-4.315-3.453-2.019Z"/><path class="d" d="M203.93,35.2a42.717,42.717,0,0,0-5.843-8.148c-5.606-6.124-16.286-14.954-27.738-19.556-13.123-5.274-30.8-7.331-50.3-3.559a81.844,81.844,0,0,0-18.58,6.6c-3.606,1.873-8.033,4.685-9.25,8.028C90.8,22.446,90.881,29.891,91.5,35.128c1.521,12.855,7.785,24.664,16.507,33.972,11.671,11.736,25.687,20.335,43.026,23.974l5.565.481c-1.081,4.143-3.382,6.614-6.9,7.787-5.955,1.986-10.546,1.726-17.171.89-3.892-.762-8.515-1.663-12.462-2.057a5.04,5.04,0,0,0-3.668.594c-1.1.874-1.288,2.474-1.179,3.878a14.75,14.75,0,0,0,4.65,9.587c2.121,1.957,4.767,3.239,7.082,4.961s4.125,3.464,4.326,6.474a23.247,23.247,0,0,1-.733,5.512c-.712,3.559-1.074,6.409.733,7.814,1.852,1.44,6.06.637,8.976-2.422l9.682-9.033c5.29-4.935,14.36-10.315,21.443-13.552,4.832-2.439,9.775-4.888,13.8-7.88,11.827-9.229,20.888-22.359,23.8-37.075A50.419,50.419,0,0,0,203.93,35.2Z"/><path class="a" d="M214.656,31.546c-1.555-1.322-2.187-1.886-3.823-3.374-1.51-1.373-2.714-3.11-2.592-5.148.107-1.793.856-3.425.773-4.505C208.9,17.07,207.3,16.3,205.94,15.8a22.741,22.741,0,0,1-3.961-1.673c-2.491-1.5-3.215-4.518-3.364-7.549a2.975,2.975,0,0,0-3.12-2.808c-5.926.3-11.537,3.85-16.589,7.269l-.541.387a87.255,87.255,0,0,1,19.722,15.622A44.688,44.688,0,0,1,207.7,44.094l.43-.387c1.866-1.786,5.117-5.1,6.3-6.562.735-.91,1.62-2.155,1.586-2.99A3.7,3.7,0,0,0,214.656,31.546Z"/><path class="b" d="M125.184,12.477a9.459,9.459,0,0,0-9.646,9.587c0,5.784,4.027,9.768,9.647,9.768,5.836,0,9.647-4.021,9.647-9.768A9.451,9.451,0,0,0,125.184,12.477Z"/><path class="c" d="M151.565,91.146a82.978,82.978,0,0,1-39.606-20.994C100.7,59.574,93.528,45.031,93.1,29.5c-.09-3.287-.131-6.857.911-10.018,1.027-3.116,4.639-5.131,7.329-6.617a69.322,69.322,0,0,1,21.627-7.439c15.458-2.635,32.012-1.927,46.689,3.929a74.459,74.459,0,0,1,20.172,12.584c5.343,4.531,10.058,9.574,13.229,15.882,6.748,13.42,6.251,29.588-.043,43.063A63.973,63.973,0,0,1,190,99.211a51.932,51.932,0,0,1-8.912,7.261,106.753,106.753,0,0,1-11.39,6.1,87.981,87.981,0,0,0-19.872,12.391c-3.358,2.868-6.505,6.014-9.733,9.026a13.964,13.964,0,0,1-4.322,3.269c-.905.347-2.379.675-3.112.255-.981-.563-.725-2.28-.624-3.226.206-1.93.754-3.809,1.033-5.729.563-3.865-.4-7.165-3.413-9.753-3.032-2.6-6.995-4.146-9.582-7.25a12.646,12.646,0,0,1-2.4-4.571c-.31-1.072-1.067-3.617-.117-4.567.493-.492,1.52-.323,2.128-.276,1.012.078,2.022.214,3.026.36,2.129.31,4.247.692,6.361,1.094a57.907,57.907,0,0,0,12.1,1.256,26.5,26.5,0,0,0,11.049-2.4,12.4,12.4,0,0,0,6.086-7.575,14.77,14.77,0,0,0,.123-8.105c-.715-2.468-4.576-1.418-3.857,1.063a12.287,12.287,0,0,1,.211,4.524c-.022.233-.039.471-.076.7.11-.7.006-.17-.1.208A11.193,11.193,0,0,1,153.7,95.6c-1.693,3.139-4.9,4.137-8.209,4.8-8.427,1.677-16.884-1.35-25.221-2.2-2.024-.206-4.193-.081-5.656,1.522a6.893,6.893,0,0,0-1.338,5.51,16.778,16.778,0,0,0,5.338,10.564,41.193,41.193,0,0,0,5.358,3.786,16.075,16.075,0,0,1,4.3,3.516,6.1,6.1,0,0,1,.871,4.81c-.318,2.074-.862,4.1-1.094,6.192-.369,3.33.718,6.916,4.464,7.487,3.949.6,7.145-1.727,9.865-4.265,3.407-3.179,6.728-6.5,10.272-9.527a71.221,71.221,0,0,1,9.777-6.814c7.46-4.463,15.746-7.5,22.881-12.509a66.037,66.037,0,0,0,16.512-17.336c8.909-13.343,12.506-29.9,8.387-45.561a47.515,47.515,0,0,0-11.1-20.365,86.054,86.054,0,0,0-17.8-14.368C167.138,2.144,150.28-.8,133.835.182a86.208,86.208,0,0,0-25.917,5.336,60.6,60.6,0,0,0-10.424,4.961c-3.116,1.943-6.258,4.433-7.384,8.073A34.374,34.374,0,0,0,89.1,29.5,60.157,60.157,0,0,0,90.56,41.329a61.7,61.7,0,0,0,10.269,22.184c9.306,12.829,23.23,22.664,38.029,28.142A83.592,83.592,0,0,0,150.5,95c2.511.533,3.584-3.322,1.063-3.857Z"/><path class="c" d="M179.915,12.765c4.174-2.819,8.569-5.761,13.592-6.751.727-.143,1.979-.526,2.653-.1.756.475.549,1.953.654,2.705a10.766,10.766,0,0,0,2.413,5.8c1.726,1.931,4.223,2.445,6.5,3.43.462.2,1.158.452,1.293.952.1.363-.213,1.021-.3,1.367-.151.624-.28,1.244-.37,1.88-.732,5.136,3.6,7.853,6.89,10.912.953.887.845,1.275.139,2.286a20.025,20.025,0,0,1-1.8,2.114c-1.569,1.692-3.2,3.334-4.86,4.933-1.86,1.787.971,4.613,2.828,2.828,1.664-1.6,3.292-3.24,4.861-4.933,1.421-1.532,3.26-3.353,3.56-5.505.393-2.822-1.922-4.534-3.78-6.176-1.583-1.4-4.107-3.089-3.948-5.483.17-2.566,1.688-4.959-.4-7.194-1.814-1.946-4.7-2.053-6.857-3.431-1.955-1.249-2.175-3.724-2.373-5.822a5.073,5.073,0,0,0-4.947-4.806c-3.142-.083-6.407,1.153-9.208,2.451A62.429,62.429,0,0,0,177.9,9.311c-2.122,1.433-.123,4.9,2.018,3.454Z"/><path class="c" d="M125.184,10.477a11.631,11.631,0,0,0-11.119,8.073,12.024,12.024,0,0,0,3.752,12.829,12.5,12.5,0,0,0,13.505.9c4.251-2.43,6.04-7.467,5.34-12.159a11.565,11.565,0,0,0-11.478-9.648c-2.574-.033-2.576,3.967,0,4a7.515,7.515,0,0,1,7.334,5.361,8.114,8.114,0,0,1-2.4,8.463,7.83,7.83,0,0,1-4.126,1.5,8.624,8.624,0,0,1-4.693-.891,7.753,7.753,0,0,1-3.717-7.843,7.548,7.548,0,0,1,7.6-6.594C127.756,14.444,127.764,10.443,125.184,10.477Z"/><path class="c" d="M125.185,18.283a3.784,3.784,0,0,0-3.859,3.835,3.721,3.721,0,0,0,3.859,3.907,3.683,3.683,0,0,0,3.859-3.907A3.781,3.781,0,0,0,125.185,18.283Z"/><path class="c" d="M155.587,68.889a2.356,2.356,0,0,0-.815,3.216,5.25,5.25,0,0,0,2.966,2,9.465,9.465,0,0,0,12.288-11.362L167.088,65a9.482,9.482,0,0,0,10.329-1.2,9.358,9.358,0,0,0,2.634-9.918L176.4,55.431c2.268,3.623,7.267.615,9.25-1.75a11.164,11.164,0,0,0,2.343-10.094c-.681-2.479-4.541-1.426-3.857,1.064a6.955,6.955,0,0,1-.851,5.517,7.05,7.05,0,0,1-1.757,1.961,6.251,6.251,0,0,1-1.277.745c-.1.042-.551.116-.6.2-.177.276-.444-.7.2.341-1.157-1.849-4.408-.688-3.655,1.541a5.411,5.411,0,0,1-1.337,5.789,5.339,5.339,0,0,1-5.75.807,2.027,2.027,0,0,0-2.938,2.259,5.69,5.69,0,0,1-1.932,5.732,5.439,5.439,0,0,1-3.02,1.081c-.743.039-2.811-.171-3.055-.663l.273,1.01,0-.23-.99,1.727.165-.122a2.063,2.063,0,0,0,.717-2.737,2.014,2.014,0,0,0-2.736-.717Z"/><path class="c" d="M195.74,54.492a6.143,6.143,0,0,1-.406,5.724,4.01,4.01,0,0,1-4.353,1.546,2.022,2.022,0,0,0-2.259,2.938c1.949,3.44-2.977,6.829-6.053,6.118-2.505-.58-3.574,3.276-1.063,3.857,6.5,1.5,14.328-5.361,10.57-11.994l-2.259,2.938a7.986,7.986,0,0,0,8.4-2.759,9.837,9.837,0,0,0,1.279-9.431,2.052,2.052,0,0,0-2.46-1.4,2.017,2.017,0,0,0-1.4,2.46Z"/><path class="c" d="M137.4,113.907a18.407,18.407,0,0,0,8.587-1.566,2,2,0,0,0,.919-1.2,2.043,2.043,0,0,0-.2-1.541,2.017,2.017,0,0,0-1.2-.919,2.336,2.336,0,0,0-1.541.2c.533-.23-.056.02-.163.061-.13.05-.26.1-.39.145q-.458.162-.924.3a15.977,15.977,0,0,1-1.755.4c-.134.022-.28.033-.411.064.552-.134.058-.009-.087.006q-.448.047-.9.069a16.508,16.508,0,0,1-1.939-.024,2.01,2.01,0,0,0-2,2,2.05,2.05,0,0,0,2,2Z"/><path class="a" d="M156.737,46.771a5.012,5.012,0,0,0-1.21-1.994c-3.437-3.438-8.375-5.346-12.616-7.653-.081.128-.167.256-.254.385l-.578.838a29.634,29.634,0,0,1-9.065,8.435c.271,5.676.983,9.342,2.938,12.441.912,1.247,3.756,1.846,5.006,1.648A25.829,25.829,0,0,0,153.052,55.2c2.141-1.766,3.981-3.9,4.041-5.566A8.115,8.115,0,0,0,156.737,46.771Z"/><path class="c" d="M143.347,122.279l2.457-3.261a1.493,1.493,0,0,0,.238-.744,1.526,1.526,0,0,0-.036-.8,2.047,2.047,0,0,0-.919-1.195,2.018,2.018,0,0,0-1.541-.2l-.478.2a2.008,2.008,0,0,0-.718.718l-2.457,3.261a1.492,1.492,0,0,0-.237.744,1.511,1.511,0,0,0,.035.8,2.043,2.043,0,0,0,.92,1.2,2.017,2.017,0,0,0,1.541.2l.477-.2a2.008,2.008,0,0,0,.718-.718Z"/><path class="c" d="M131.038,47.279c.233,4.123.685,8.362,2.667,12.059,2.012,3.754,6.5,3.961,10.173,2.942a28.081,28.081,0,0,0,12.038-6.973c1.546-1.53,3.044-3.418,3.177-5.674a8.459,8.459,0,0,0-1.781-5.854c-3.207-3.88-8.54-5.822-12.87-8.1-2.276-1.2-4.3,2.252-2.019,3.453,3.267,1.72,6.713,3.186,9.713,5.364,1.176.854,2.431,1.8,2.8,3.259a3.81,3.81,0,0,1-1,3.819,22.75,22.75,0,0,1-9.008,6.153,12.178,12.178,0,0,1-4.887,1.169,3.4,3.4,0,0,1-2.672-1.188c-1.888-3.023-2.14-6.974-2.335-10.428-.145-2.56-4.146-2.577-4,0Z"/><path class="c" d="M146.036,25.052a31.176,31.176,0,0,1-8.2,15.336c-4,4.2-9.21,6.754-14.59,8.736-2.4.882-1.36,4.749,1.064,3.857,6.023-2.219,11.867-5.058,16.355-9.765,4.377-4.592,8.105-10.806,9.229-17.1a2.056,2.056,0,0,0-1.4-2.46,2.017,2.017,0,0,0-2.46,1.4Z"/></svg>