<svg xmlns="http://www.w3.org/2000/svg" xmlns:xlink="http://www.w3.org/1999/xlink" width="141" height="45" viewBox="0 0 141 45">
    <defs>
        <path id="1m39e43qfa" d="M.891 15.843C.236 16.066 0 16.422 0 17V43.36c0 1.55 1.23 1 1.23 1L47.648 28.56s.832-.182.832-1.142V.921c0-1.28-1.218-.853-1.218-.853S1.549 15.618.892 15.843z"/>
    </defs>
    <g fill="none" fill-rule="evenodd">
        <g>
            <g>
                <g>
                    <g>
                        <path fill="#646462" d="M10.635 14.27c1.512 0 3.22.256 5.091.887.224.086.255.228.255.373-.114.86-.309 1.608-.673 2.381-.087.171-.253.14-.365.114-.25-.086-2.154-1.402-4.811-1.402-3.443 0-5.85 2.547-5.85 7.456 0 4.871 2.346 7.425 5.85 7.425 2.348 0 4.475-1.32 5.15-1.637.166-.054.28.087.305.232.058.465.03 2.034-.083 2.495-.03.114-.17.286-.366.343-1.534.517-3.356.918-5.006.918C3.83 33.855 0 30.039 0 24.079c0-4.848 3.613-9.841 10.635-9.808zm41.76 6.878c1.79 0 3.3.433 4.053.718.085.033.198.118.198.231 0 .115-.168.661-.253.977-.112.373-.277.919-.332.97-.085.09-.2.09-.283.062-1.09-.488-2.463-.777-3.303-.777-.67 0-1.79.17-1.79 1.09 0 2.01 6.552.804 6.552 5.506 0 3.297-3.638 3.93-5.516 3.93-1.43 0-3.639-.401-4.506-.772-.111-.032-.192-.146-.192-.234 0-.113.11-.63.221-1 .139-.403.278-.83.366-.915.055-.062.166-.062.28-.033 1.591.545 2.964.744 3.774.744.731 0 1.96-.141 1.96-1.146 0-2.407-6.352-.834-6.352-5.59 0-2.64 2.743-3.76 5.123-3.76zm10.655.235c.11.053.17.169.17.258v7.083c0 1.29.248 2.352 1.9 2.352 1.007 0 1.683-.431 2.8-1.35V21.64c0-.09.056-.205.167-.258.105-.028 1.267-.054 1.638-.057h.07c.25 0 1.594.027 1.706.057.11.053.14.169.14.258v11.671c0 .085-.03.23-.14.26-.078.025-1.22.05-1.583.053h-.07c-.253 0-1.567-.026-1.648-.053-.113-.03-.142-.175-.142-.26v-1.26c-1.117.946-2.436 1.748-4.197 1.748-2.575 0-4.393-1.293-4.393-4.16v-8c0-.088.054-.204.168-.257.103-.028 1.27-.054 1.636-.057h.07c.25 0 1.596.027 1.708.057zm-23.916-.287c4.195 0 6.493 2.95 6.493 6.336 0 3.385-1.906 6.338-6.493 6.338-4.445 0-6.492-2.953-6.492-6.338 0-3.387 2.35-6.336 6.492-6.336zM21.79 14.353c.115.032.171.174.171.26v8.397c1.203-.996 2.742-1.862 4.334-1.862 2.072 0 4.116 1.324 4.116 4.218v7.946c0 .085-.056.23-.168.26-.205.025-1.259.049-1.625.053h-.082c-.252 0-1.483-.026-1.708-.053-.112-.03-.14-.175-.14-.26v-7.027c0-1.292-.17-2.465-1.818-2.465-1.005 0-1.706.458-2.909 1.375v8.117c0 .085-.056.23-.171.26-.204.025-1.258.049-1.625.053h-.082c-.253 0-1.485-.026-1.705-.053-.112-.03-.17-.175-.17-.26V14.613c0-.086.029-.228.17-.26.148-.042.927-.052 1.395-.054h.651c.463.003 1.199.013 1.366.054zm61.008 6.795c2.072 0 4.088 1.291 4.088 4.164v8c0 .085-.03.2-.14.26-.104.025-1.272.05-1.64.053h-.07c-.253 0-1.594-.026-1.705-.053-.114-.06-.168-.175-.168-.26V26.23c0-1.295-.14-2.44-1.818-2.44-1.01 0-1.708.43-2.91 1.35v8.173c0 .085-.058.2-.167.26-.08.025-1.259.05-1.64.053h-.068c-.252 0-1.596-.026-1.707-.053-.114-.06-.14-.175-.14-.26v-11.5c0-.087.026-.26.165-.29 1.065-.139 2.829-.196 3.276-.056.114.03.168.145.168.226v1.382c1.202-1.007 2.799-1.926 4.476-1.926zm-43.859 1.695c-1.847 0-2.491 1.808-2.491 3.586 0 1.775.391 5.59 2.884 5.59 1.846 0 2.489-1.803 2.489-3.583 0-1.78-.391-5.593-2.882-5.593z" transform="translate(-838.000000, -64.000000) translate(0.000000, 40.000000) translate(838.000000, 24.000000) translate(0.000000, -0.000000)"/>
                        <g transform="translate(-838.000000, -64.000000) translate(0.000000, 40.000000) translate(838.000000, 24.000000) translate(0.000000, -0.000000) translate(90.245210, 0.002024)">
                            <mask id="5f6vyg2ihb" fill="#fff">
                                <use xlink:href="#1m39e43qfa"/>
                            </mask>
                            <use fill="#D8D8D8" xlink:href="#1m39e43qfa"/>
                            <path fill="#FFF" d="M2.314 14.093H43.254V33.891999999999996H2.314z" mask="url(#5f6vyg2ihb)"/>
                        </g>
                        <path fill="#E11837" d="M137.523.06c.17-.051 1.194-.311 1.194.861v26.498c0 .96-.831 1.142-.831 1.142l-5.418 1.844c-1.445.427-2.842.7-4.647.905-3.419.38-6.28.171-6.665.13l6.756-8.304c.057-.087.112-.173.112-.259v-1.292c0-.116-.055-.173-.167-.173H117.54c-.056 0-.168.029-.196.115-.028.086-.056.718-.056.92 0 .2.028.89.056.976.028.086.14.115.196.115h5.971l-6.896 8.476c-.056.057-.084.143-.084.23v1.091c0 .087.056.144.14.144 1.471.13 3.952.186 6.267.17l-31.47 10.71s-1.23.55-1.23-1V17c0-.578.235-.934.89-1.157l2.751-.939V33.22c0 .173.056.288.224.288h6.417c2.04-.016 7.6-.367 7.6-5.833 0-3.103-2.55-4.28-4.205-4.568 2.58-1.293 2.944-3.304 2.944-4.367 0-3.677-3.533-4.367-6.673-4.367-1.345 0-3.512.055-5.059.106 4.531-1.543 11.51-3.917 18.505-6.296l1.7-.578 1.13-.385L137.5.068zm-23.347 21.18c-.645-.116-2.804-.058-3.42.085-.112.03-.169.173-.169.288v11.694c0 .086.029.258.169.258.28.029 1.457.058 1.71.058.252 0 1.43-.03 1.71-.058.14 0 .168-.172.168-.258V21.498c0-.086-.056-.23-.168-.259zm-15.237 3.303c1.087-.01 4.92-.21 4.92 3.132 0 3.85-4.233 3.534-5.27 3.534h-.757v-6.666zm-.309-8.007c1.949-.098 4.023.055 4.023 2.578 0 2.901-1.85 3.275-4.233 3.275h-.588v-5.804l.475-.031zm13.836-2.278c-1.15 0-2.103 1.006-2.103 2.212 0 1.236.953 2.212 2.103 2.212 1.15 0 2.102-.976 2.102-2.212 0-1.206-.953-2.212-2.102-2.212z" transform="translate(-838.000000, -64.000000) translate(0.000000, 40.000000) translate(838.000000, 24.000000) translate(0.000000, -0.000000)"/>
                    </g>
                </g>
            </g>
        </g>
    </g>
</svg>
