<svg xmlns="http://www.w3.org/2000/svg" width="80" height="80" viewBox="0 0 80 80">
    <g fill="none" fill-rule="evenodd">
        <g>
            <g>
                <g>
                    <g transform="translate(-920.000000, -5184.000000) translate(0.000000, 846.000000) translate(0.000000, 4126.000000) translate(920.000000, 212.000000)">
                        <circle cx="40" cy="40" r="40" fill="#E82745"/>
                        <g fill-rule="nonzero">
                            <path fill="#FFF" d="M46.638 17.9c.688-.9 1.097-2.021 1.097-3.238v-1.864c0-2.944-2.396-5.34-5.34-5.34s-5.34 2.396-5.34 5.34v1.864c0 1.216.409 2.337 1.095 3.235h-5.974c1.444-1.38 2.345-3.322 2.345-5.473V7.578c0-4.179-3.4-7.578-7.578-7.578-4.178 0-7.577 3.4-7.577 7.578v4.846c0 2.15.901 4.093 2.344 5.473h-5.974c.687-.898 1.096-2.02 1.096-3.235v-1.864c0-2.944-2.396-5.34-5.34-5.34-2.945 0-5.34 2.396-5.34 5.34v1.864c0 1.217.41 2.338 1.096 3.237C3.245 17.938 0 21.205 0 25.217v3.986c0 .58.471 1.052 1.052 1.052h8.42v4.693c0 .58.472 1.052 1.053 1.052h12.947c.581 0 1.052-.471 1.052-1.052 0-.582-.471-1.053-1.052-1.053H11.577v-5.128c0-4.6 3.563-8.38 8.073-8.735l5.72 13.863h-2.427c-.58 0-1.052.471-1.052 1.053 0 .58.471 1.052 1.052 1.052h20.42c.58 0 1.052-.471 1.052-1.052v-4.693h8.42c.58 0 1.052-.471 1.052-1.052v-3.986c0-4.012-3.245-7.28-7.249-7.318zm-7.478-3.238v-1.864c0-1.784 1.451-3.235 3.235-3.235 1.784 0 3.235 1.451 3.235 3.235v1.864c0 1.784-1.451 3.235-3.235 3.235-1.784 0-3.235-1.45-3.235-3.235zM26.943 2.105c3.018 0 5.473 2.455 5.473 5.473v.01h-.004c-1.742 0-3.434-.504-4.892-1.459-.35-.229-.803-.229-1.153 0-1.458.955-3.15 1.46-4.892 1.46h-.004v-.011c0-3.018 2.455-5.473 5.472-5.473zm-5.472 10.32V9.692h.004c1.927 0 3.803-.5 5.468-1.45 1.665.95 3.542 1.45 5.469 1.45h.004v2.731c0 3.018-2.455 5.473-5.473 5.473-3.017 0-5.472-2.455-5.472-5.473zm-13.214.373c0-1.784 1.45-3.235 3.235-3.235 1.783 0 3.235 1.451 3.235 3.235v1.864c0 1.784-1.452 3.235-3.235 3.235-1.784 0-3.235-1.45-3.235-3.235v-1.864zM9.49 28.15H2.105v-2.933c0-2.875 2.34-5.215 5.215-5.215h6.601c-2.54 1.866-4.243 4.808-4.43 8.148zm12.441-8.148h3.96v2.526c0 .581.471 1.053 1.052 1.053.582 0 1.053-.472 1.053-1.053v-2.526h3.976l-5.029 12.186-5.028-12.186h.016zM42.31 33.895H28.516l5.72-13.863c4.511.354 8.074 4.135 8.074 8.735v5.128zm9.472-5.745h-7.385c-.188-3.34-1.891-6.282-4.431-8.148h6.601c2.876 0 5.215 2.34 5.215 5.215v2.933z" transform="translate(13.000000, 19.000000)"/>
                            <path fill="#E82745" d="M25 20H29V24H25z" transform="translate(13.000000, 19.000000)"/>
                        </g>
                    </g>
                </g>
            </g>
        </g>
    </g>
</svg>
