<svg xmlns="http://www.w3.org/2000/svg" width="60" height="60" viewBox="0 0 60 60">
    <g fill="none" fill-rule="evenodd">
        <g>
            <g>
                <g>
                    <g>
                        <g>
                            <g transform="translate(-477.000000, -3678.000000) translate(0.000000, 846.000000) translate(397.000000, 2576.000000) translate(0.000000, 205.000000) translate(51.000000, 51.000000) translate(29.000000, 0.000000)">
                                <circle cx="30" cy="30" r="30" fill="#FFF"/>
                                <path fill="#E82745" fill-rule="nonzero" d="M42.363 17C43.817 17 45 18.183 45 19.637V35.34c0 1.454-1.183 2.637-2.637 2.637h-8.672v3.867h5.684c.485 0 .879.393.879.879 0 .485-.394.879-.879.879h-18.75c-.485 0-.879-.394-.879-.88 0-.485.394-.878.879-.878h5.684v-3.867h-8.672c-1.454 0-2.637-1.183-2.637-2.637V19.637C15 18.183 16.183 17 17.637 17zm-10.43 20.977h-3.867v3.867h3.868v-3.867zm10.43-19.22H17.637c-.485 0-.88.395-.88.88V35.34c0 .484.395.879.88.879h24.726c.485 0 .88-.395.88-.88V19.638c0-.485-.395-.88-.88-.88zm-6.27 2.993c2.812 0 5.098 2.287 5.098 5.098 0 2.81-2.286 5.097-5.097 5.097-2.811 0-5.098-2.286-5.098-5.097 0-2.811 2.287-5.098 5.098-5.098zm-8.968 7.969c.485 0 .879.393.879.879 0 .485-.394.879-.879.879h-4.688c-.485 0-.878-.394-.878-.88 0-.485.393-.878.878-.878zm-7.61.017c.82-.154 1.37.785.852 1.419-.287.352-.826.446-1.237.122-.576-.486-.334-1.392.386-1.541zm15.7-6.11c-1.417.387-2.461 1.684-2.461 3.222 0 1.841 1.498 3.34 3.34 3.34 1.537 0 2.835-1.045 3.221-2.461h-3.221c-.486 0-.88-.394-.88-.88zm-8.09 2.343c.485 0 .879.393.879.879 0 .485-.394.879-.879.879h-4.688c-.485 0-.878-.394-.878-.88 0-.485.393-.878.878-.878zm-7.693.038c.466-.148 1.006.133 1.117.669.088.47-.193.886-.606 1.012-.417.132-.93-.076-1.096-.585-.142-.475.129-.957.585-1.096zm17.54-2.38v2.342h2.343c-.31-1.136-1.206-2.033-2.342-2.343zm-9.847-1.408c.485 0 .879.393.879.879 0 .485-.394.879-.879.879h-4.688c-.485 0-.878-.394-.878-.88 0-.485.393-.878.878-.878zm-7.61.017c.476-.09.933.203 1.034.69.091.487-.215.934-.69 1.034-.49.091-.936-.22-1.033-.69-.092-.487.216-.936.69-1.034z"/>
                            </g>
                        </g>
                    </g>
                </g>
            </g>
        </g>
    </g>
</svg>
