<svg xmlns="http://www.w3.org/2000/svg" width="301" height="46" viewBox="0 0 301 46">
  <g fill="none" fill-rule="evenodd">
    <g fill="#1E317E" fill-rule="nonzero">
      <g>
        <path d="M244.161 11.856c.864 0 1.68-.912 1.776-1.92 4.416-3.36 10.08-4.896 15.36-5.568.768-.288 1.728-.72 1.536-1.68-.24-1.104-1.392-.576-2.064-.24l-.384.192c-7.008.96-11.376 2.784-16.32 5.808-.96.576-2.112 1.536-2.064 2.64.192 1.2 1.248 1.104 2.16.768zm2.784 16.992c2.64-2.112 6.384-3.168 9.456-4.032.384-.096.768-.24 1.2-.336 1.2-.528 2.688-.816 3.984-1.008 2.208-.432 4.368-.768 6.288-2.352.192-.192.096-.24-.048-.384l-.384-.288c-3.12.288-6.528.96-10.08 1.872 1.344-3.36 2.352-7.536 2.4-11.184-.048-.144-.048-.24-.096-.384-.144-.528-.336-1.008-.624-1.104-1.056.384-1.344 1.824-1.488 3.12-.048.624-.096 1.2-.24 1.584-.432 1.152-.624 2.448-.816 3.792-.24 1.536-.384 3.024-1.104 4.368-1.008.576-1.92.816-2.832 1.056-.528.144-1.584.528-2.016.672.384-1.632.48-3.552.528-5.232 0-.432.048-.864.048-1.296 0-1.152.288-2.112.576-3.168.336-1.056.624-2.352.528-3.408-.336-.528-.336-.576-.72-.672-2.304 2.448-2.688 5.952-2.784 9.264.048.288.096.768.096 1.152.048 1.296.096 2.64 1.344 3.408-1.056.816-1.488.912-2.112 1.2-1.344.576-2.592 1.248-2.64 2.736.288.624.864.816 1.536.624zm-2.88 11.52c1.344-.192 1.728-.384 3.024-1.2.192-.144.432-.336.816-.576 7.392-2.832 14.304-4.08 21.36-4.608.192-.048.384-.048.576-.144.768-.144 1.344-.24 1.584-1.104 0-.672-.288-1.488-.768-1.776-.768.144-1.248.528-1.728 1.104-8.64.624-13.632 1.968-21.024 4.128-1.008.336-2.064.624-3.12.96-1.2.528-1.248.624-1.728 1.728l-.144.288c.288.576.672 1.056 1.152 1.2zm31.536 0c3.6-2.784 7.536-5.76 10.944-8.544.528-.768 1.008-1.536 1.584-2.208 0-.576.24-1.056.528-1.632.288-.624.576-1.296.336-1.728-1.968 2.496-4.416 4.224-7.008 6.144-.96.72-2.4 1.92-4.416 3.504-.144-2.88.336-5.568 1.2-7.68.24-.576.528-1.152.816-1.776.576-1.2 1.248-2.496 1.248-3.936 0-.384-.096-1.008-.24-1.488-.48-.192-1.056-.288-1.488-.288-1.392 0-2.832.768-4.08 1.536h-.432c.528-1.584 1.488-4.128 2.352-6.096 1.44-2.976 2.88-6.048 3.024-9.696-.192-.576-.672-.624-1.152-.672-.24 0-.528 0-.72-.048-3.6 1.152-7.584 2.64-9.696 6.24-.096.384-.192.912-.192 1.344 0 .72.192 1.488.816 1.872.672.432.768-.048.864-.672.096-.384.288-.96.672-1.296 2.016-1.728 4.56-3.36 7.392-3.648-.528 1.296-1.248 2.88-1.824 4.176-1.68 3.648-3.408 7.584-3.504 11.76.384.672.672.864 1.056.864.432 0 1.008-.384 1.632-.816.816-.528 1.776-1.248 3.12-.864-1.872 4.08-3.312 8.928-3.696 13.68.048.528.192 1.152.24 1.584.192.24.336.432.624.384zm17.76-5.376c.24-.384.432-.768.576-1.104.384-.816.72-1.536 1.44-2.304.768-5.088 1.296-10.656 1.296-15.84v-.048c.096-.528-.384-.624-.912-.528h.048c-1.68.432-2.064 2.352-2.16 4.032.144 1.008.192 2.016.192 3.072 0 2.256-.288 4.416-.528 6.672-.144 1.296-.288 2.448-.384 3.792.096.288.144.672.144 1.056 0 .528 0 1.008.288 1.2zm15.504-2.544c2.736-1.056 4.032-2.064 6.48-4.272.864-.816 1.008-.912 1.92-1.68.48-.432.96-.864 1.392-1.344 1.248-1.392 2.448-2.88 1.968-4.896h-.24c-.288.336-1.152 1.248-1.488 1.632-3.12 3.216-4.896 5.04-8.976 6.672.336-3.108.966-5.628 1.601-8.075l.271-1.045c.864-3.408 1.824-6.912 1.968-10.704-.384-.72-.816-1.536-1.536-1.776-2.4.96-4.752 1.872-6.816 3.648-.768-.432-.816-.912-.768-1.392v-.48c.192-.768-.384-1.008-.768-1.2-.672.336-1.296.816-1.536 1.44 0 1.92-.24 4.608-.432 6.384-.192 1.824-.432 3.648-.432 5.52 0 1.008.096 1.968.24 3.072.288.096.432.288.72.48.336.288.624.528 1.008.432 0-.576.048-1.056.048-1.584.096-2.928.24-6.144.912-8.928 3.168-2.688 5.04-3.696 6.768-4.128v.864c-.432 2.064-.816 4.176-1.152 6.24-.816 4.896-1.632 9.744-3.408 14.4.624.576 1.392 1.008 2.256.72zm17.616-6.624c.192-5.424.72-10.992 1.344-16.272l-.576-1.2c-.48-.816-1.056-.096-1.536.432-.144.192-.24.288-.336.384-.096 2.016-.336 3.888-.528 5.856-.336 2.496-.576 5.136-.576 7.632 0 .912 0 1.824.096 2.736.096.192.192.24.384.288l.184.108c.182.108.344.216.344.324.288.192.912.144 1.2-.288zm27.216-.672c.048-.048.144-.096.24-.144.288-.72.864-1.248 1.392-1.68.624-.48 1.152-1.008 1.344-1.824.432-2.544.768-5.04 1.2-7.584.48-2.496.912-5.04 1.344-7.632-.192-.192-.528-.24-.768-.24-1.776.576-2.736 2.64-3.36 4.32l-4.896 1.248.048-.048-2.304.96h.048l-.223.092-.45.185c-2.26.938-4.585 2.044-4.847 4.619.048.192.24.432.384.48 3.696-2.16 7.92-3.456 12.24-4.176L353.697 24v1.152zm-19.2-1.44c1.152 0 2.016-1.344 2.88-2.832.672-1.104 1.248-2.208 2.256-2.832.144-.816.24-1.68.24-2.4 0-1.392-.24-2.736-.528-3.984-.384-1.152-.816-1.632-1.296-1.632-.864 0-2.064.96-3.072 1.68-.288.24-.528.432-.816.576-1.008 2.064-2.16 4.704-2.16 7.248 0 1.296.288 2.448.864 3.552.624.432 1.104.624 1.632.624zm.48-4.896c-.096-.432-.144-.96-.144-1.584 0-1.104.288-2.448.864-3.408 1.44 1.584 1.44 3.84 1.344 5.088 0 .048-.048.288-.096.48-.768 1.296-1.488.096-1.968-.576zm18.048 27.168c.09-.013.146-.032.195-.054l.073-.034c.115-.052.27-.104.788-.104 1.536-.768 3.36-1.344 5.04-1.92 2.976-1.104 6.336-2.304 9.168-5.088 0-.048-.048-.192-.096-.24l-.288-.144c-2.928.672-4.896 1.392-7.44 2.352-.96.384-1.92.72-3.408 1.248-.816.24-1.872.528-3.072-.192.042-1.622.66-2.992 1.293-4.266l.291-.582c.816-1.584 1.584-3.12 1.488-4.848-1.056-.624-2.112-.816-3.216-.816-2.688 0-5.76 1.632-8.064 3.12-.192-1.44.048-2.496.288-3.648.144-.384.192-.96.288-1.392-.576-.48-1.152 0-1.68.384-.144.144-.192.192-.48.336-1.758 3.194-1.866 7.548-1.871 11.556V43.2c.095.288.287.72.335.912.096.384.24.768.48.912.144-.144.144-.192.288-.336.72-.768 1.44-1.776 2.256-2.4-.288-.912-.528-2.064-.528-3.072 0-.816.144-1.488.48-2.064 1.824-1.056 4.032-2.304 6.192-2.304.672 0 1.344.144 2.064.384-.288.624-.72 1.536-1.056 2.16-.624 1.248-1.344 2.784-1.632 4.368.096.192.24.72 1.44.48l-1.2 1.248c0 .192-.048.288-.096.432-.192.672-.336 1.584.192 1.872.528.432.96.336 1.488.192zm32.592-12.864c.192 0 .432-.096.576-.24-.096-.72-.096-1.632-.096-2.448 0-5.568 1.728-10.32 3.408-15.072 1.152-2.976 2.16-6.048 2.832-9.072-.288-.384-.864-.768-1.2-1.008-1.056.48-2.256.816-3.36 1.2-2.544.816-4.992 1.68-7.104 3.216l-.192.096-.282.243-.288.248c-1.25 1.089-2.502 2.35-1.878 3.973l.624.816c.768.96 1.44 2.016 2.64 1.968.432-.576.048-1.2-.336-1.824-.288-.528-.72-1.104-.72-1.776 2.544-2.544 5.904-3.984 9.312-4.512-2.448 5.904-3.888 10.896-5.136 16.416-.048.864-.096 2.016-.096 2.832 0 1.872.192 3.648 1.296 4.944zm9.648-4.8h-.048c2.112-1.2 4.224-2.208 6.288-3.12 2.976-1.344 6.24-2.64 9.168-5.232.144.816.24 1.488.24 2.016 0 .672-.048 1.344-.144 1.872-.096 1.056-.24 2.016-.048 2.88.432.384 1.104-.048 1.392-.576.816-3.024 1.056-6.288 1.296-9.6.24-3.12.528-6.432 1.296-9.36-.192-.768-.528-1.056-.96-1.056-.768 0-1.584 1.008-1.488 2.016-.432 1.008-.624 3.264-.768 5.28-.192 1.584-.336 3.12-.48 3.84-2.736 1.968-5.76 3.408-8.784 4.848-2.448 1.056-4.848 2.16-6.912 3.504-1.248.192-1.488 1.536-1.728 2.544.384.384 1.104.432 1.68.144zm-.768-11.28c3.648-2.544 7.776-4.704 11.424-6.432 1.056-.24 1.68-.72 1.776-1.44-.192-.528-.576-1.248-1.248-1.2-2.88 1.248-5.904 2.784-8.688 4.08-.384.24-1.008.576-1.488.864-1.152.672-2.4 1.296-3.072 2.88-.528.96.576 1.248 1.296 1.248zm11.856 27.6c1.872-2.4 2.64-5.28 2.592-8.112 0-2.016-.336-4.032-.624-5.856v-.048c0-.288-.288-.576-.576-.672-.624 1.344-.72 3.312-.864 5.28-.144 2.544-.384 5.472-2.208 8.256-.72-1.44-1.008-3.312-1.008-4.848 0-.624 0-1.344.096-1.872.048-.624.288-1.344.624-1.92.336-.864.72-1.824.24-2.688-.816-.096-1.44.48-2.016 1.056-.816 1.776-1.344 3.984-1.344 6.144 0 2.304.72 4.56 2.112 6.192 1.104.24 2.304 0 2.976-.912zm14.448-10.512c.336-.048.528-.144.768-.384 4.272-7.056 7.872-14.736 11.136-21.792.432-.864.96-1.968 1.296-2.784 0-.72-.336-1.296-1.008-1.488-3.888 1.056-8.112 2.208-12 3.216-.432.288-.864.624-1.248.912-.864.432-1.248 1.248-.864 2.064 1.344.96 3.168 1.92 4.896 1.92.48 0 1.104-.096 1.536-.336.439-.92-.203-1.2-.94-1.425l-.212-.063c-.576-.144-1.2-.288-1.68-.912 2.64-1.2 5.76-1.728 8.496-2.16-1.2 3.024-2.832 6.432-4.32 9.456-2.064 4.464-4.272 8.928-5.856 13.776zm24.336-1.488c.096-.144.144-.24.24-.384.048-4.416.672-9.216 1.2-13.248.096-.096.24-.384.288-.48.384-.576.816-1.44.528-2.112-.384-.624-.384-1.296-.432-2.064-.048-.96-.144-1.968-.768-2.352-1.296.576-1.344 1.824-1.392 3.12-.048.72-.048 1.44-.384 2.208-.576.288-1.392.672-2.016.96l-.755.326c-2.767 1.203-5.477 2.538-7.5 5.002-.625 1.008.431 1.392 1.247 1.344 2.496-1.968 5.808-3.648 8.736-4.512 0 .48-.048 1.344-.096 1.824-.144 2.304-.288 4.944-.288 7.344 0 1.344 0 2.448.096 3.792h.288c.384.096.72-.336 1.008-.768zm7.728-.528c.288-.192.528-.624.72-.864.144-.336.288-.672.768-.96.624-3.456.72-7.344.768-10.992.048-1.92.096-3.84.192-5.712-.48-.864-1.008-.192-1.44.384-.192.288-.384.528-.624.72v5.568c0 1.104.048 2.256.048 3.408 0 2.928-.048 5.808-.432 8.448zm-22.272 7.728c.048-.24 0-.576.24-.96-.336-2.112-.48-4.224-.48-6.288 0-1.392.096-2.832.144-4.272.048-.912.096-1.776.096-2.736l-.672-.384c-.384.48-.624.768-1.056 1.248-.24 2.112-.432 4.704-.432 7.008 0 2.448.192 4.848.816 7.008.144.192.288.384.432.336.816.144.864-.336.912-.96zM474.897 7.2c4.56-2.208 9.696-3.504 14.784-4.512.528-.192 1.2-.576 1.248-1.152l-.864-1.248c-5.136.912-10.08 2.112-14.64 3.984-1.104.288-2.064 1.152-2.112 2.352.144.048.24.144.336.192.384.24.864.528 1.248.384zm8.976 26.208c1.728-1.392 3.696-2.688 5.616-3.84 3.264-2.064 6.576-4.128 9.072-7.2l.528-.288c-.432 1.68-.72 3.84-.72 5.424 0 .864.096 1.728.288 2.688.096.912.864 1.44 1.776 1.632.624-.48.864-1.104.864-1.728 0-.384-.144-1.056-.24-1.536-.144-.672-.288-1.536-.192-2.304 1.92-1.44 3.984-2.064 6.048-2.64 1.92-.528 3.888-1.104 5.424-2.208.048-.192.24-.432.384-.672.24-.384.528-1.008.096-1.296-2.16.672-4.416 1.296-6.528 1.824-1.392.336-3.312.912-4.704 1.296.672-2.16 1.008-4.08 1.008-6.096 0-.384 0-.96-.048-1.392-.192-.336-.576-.672-.864-.72-1.104.336-1.584 1.488-1.92 2.544-.144.432-.288.768-.432 1.104-3.936 4.416-7.632 8.544-13.152 10.848.72-3.216 1.056-5.856 1.344-8.496.24-2.304.528-4.656 1.008-6.864-.048-.48-.432-.816-.768-1.056-.336.192-.528.384-.72.624-.048.144-.192.288-.432.48-1.104 2.88-1.392 6.528-1.584 9.984-.048 1.152-.096 2.4-.192 3.552l-2.544 3.696c-.048.24-.144.48-.336.768-.24.432-.48.864-.288 1.056.72.816 1.392.816 2.208.816zm-3.936-5.952c-.048-.768-.096-1.728-.096-2.448 0-3.984.672-7.536 1.488-11.328-.144-.24-.432-.432-.672-.528-.24.24-.48.48-.72.624-.384.288-.768.528-.912 1.104-.672 2.544-1.392 5.376-1.392 8.16 0 1.488.24 3.024.72 4.32.432.432 1.248.624 1.584.096zm41.616-13.584c2.928-2.544 3.264-6.528 3.408-10.176.048-.864.096-1.632.144-2.4.192-.912-.288-1.296-.912-1.296-.576 0-1.2.336-1.392.912-.48 1.008-1.248 2.016-1.728 2.544-1.104 1.104-1.68 3.024-1.68 4.896 0 1.536.336 3.12.816 4.464.192.672.816 1.248 1.344 1.056zm.24-3.504c-.48-.528-.72-2.112-.624-3.12.192-1.584.816-2.304 1.392-2.88l.432-.48c.432.528-.528 5.664-.816 6.384l-.384.096zm-9.552 17.28c4.752-2.928 9.888-4.992 15.312-6.48 2.016 0 2.112-.96 2.304-2.208.048-.672.24-1.344.672-2.064-.192-.048-.384-.096-.528-.144-.528.192-1.2.384-1.776.624-3.264 1.008-6.864 2.16-10.272 3.552l.048-.048c-.864.48-1.68.864-2.352 1.2-1.584.672-3.36 1.44-4.416 2.976.48.912.096.48.144.768.096.768.24 1.632.864 1.824zm27.744 14.592c.432-.24.48-.816.528-1.44.048-.72.096-1.44.864-1.968 0-.48-.048-.96-.048-1.392 0-3.792.48-7.296.96-10.848.384-2.784.72-5.616.864-8.352l-.048-.144c-1.872.401-2.42 2.003-2.91 3.69l-.114.39c-.336 1.248-.72 2.688-1.728 3.696-3.264 2.64-5.664 4.704-8.976 6.096-.336.24-1.104.768-1.728 1.152l-.347.216c-1.267.791-2.44 1.616-2.485 3.288 0 .048 0 .096.048.144.192.48.384 1.104.96.864 2.256-1.392 4.416-2.976 6.624-4.512 2.16-1.632 4.608-3.264 7.68-4.992-.576 1.776-.672 3.264-.72 4.656-.048 1.104-.096 2.256-.288 3.216 0 .432 0 1.488-.048 1.824 0 1.488.048 3.36.912 4.416zm-20.208 3.168c-.096-1.152.48-2.016 1.104-2.88l.096-.096c.096-1.584.144-3.408.192-5.04.096-3.168.192-6.48.72-9.408-.432-.24-.96-.336-1.392.096-1.296 2.4-1.344 5.52-1.344 8.688 0 2.064 0 4.032-.384 5.952 0 .144.048.384.048.528.048.864.048 1.68.576 2.16h.384z" transform="translate(-809.000000, -293.000000) translate(567.000000, 293.000000)" />
      </g>
    </g>
  </g>
</svg>
